<svg id="visual" viewBox="0 0 1400 720" width="1400" height="720" xmlns="http://www.w3.org/2000/svg" xmlns:xlink="http://www.w3.org/1999/xlink" version="1.1"><rect x="0" y="0" width="1400" height="720" fill="#457b9d"></rect><path d="M945 720L946.5 706.7C948 693.3 951 666.7 921.8 640C892.7 613.3 831.3 586.7 804.5 560C777.7 533.3 785.3 506.7 755 480C724.7 453.3 656.3 426.7 683.5 400C710.7 373.3 833.3 346.7 874 320C914.7 293.3 873.3 266.7 806.5 240C739.7 213.3 647.3 186.7 621.5 160C595.7 133.3 636.3 106.7 604.3 80C572.3 53.3 467.7 26.7 415.3 13.3L363 0L1400 0L1400 13.3C1400 26.7 1400 53.3 1400 80C1400 106.7 1400 133.3 1400 160C1400 186.7 1400 213.3 1400 240C1400 266.7 1400 293.3 1400 320C1400 346.7 1400 373.3 1400 400C1400 426.7 1400 453.3 1400 480C1400 506.7 1400 533.3 1400 560C1400 586.7 1400 613.3 1400 640C1400 666.7 1400 693.3 1400 706.7L1400 720Z" fill="#ffb703" stroke-linecap="round" stroke-linejoin="miter"></path></svg>