<svg id="visual" viewBox="0 0 1600 700" width="1600" height="700" xmlns="http://www.w3.org/2000/svg" xmlns:xlink="http://www.w3.org/1999/xlink" version="1.1"><path d="M0 275L22.2 269.3C44.3 263.7 88.7 252.3 133.2 245.2C177.7 238 222.3 235 266.8 223.7C311.3 212.3 355.7 192.7 400 192.2C444.3 191.7 488.7 210.3 533.2 225.8C577.7 241.3 622.3 253.7 666.8 243.3C711.3 233 755.7 200 800 183.3C844.3 166.7 888.7 166.3 933.2 174.2C977.7 182 1022.3 198 1066.8 187.3C1111.3 176.7 1155.7 139.3 1200 133.5C1244.3 127.7 1288.7 153.3 1333.2 164.8C1377.7 176.3 1422.3 173.7 1466.8 171.2C1511.3 168.7 1555.7 166.3 1577.8 165.2L1600 164L1600 0L1577.8 0C1555.7 0 1511.3 0 1466.8 0C1422.3 0 1377.7 0 1333.2 0C1288.7 0 1244.3 0 1200 0C1155.7 0 1111.3 0 1066.8 0C1022.3 0 977.7 0 933.2 0C888.7 0 844.3 0 800 0C755.7 0 711.3 0 666.8 0C622.3 0 577.7 0 533.2 0C488.7 0 444.3 0 400 0C355.7 0 311.3 0 266.8 0C222.3 0 177.7 0 133.2 0C88.7 0 44.3 0 22.2 0L0 0Z" fill="#ffa096"></path><path d="M0 77L22.2 94.3C44.3 111.7 88.7 146.3 133.2 154.8C177.7 163.3 222.3 145.7 266.8 133.3C311.3 121 355.7 114 400 118.8C444.3 123.7 488.7 140.3 533.2 140.5C577.7 140.7 622.3 124.3 666.8 131.8C711.3 139.3 755.7 170.7 800 185.5C844.3 200.3 888.7 198.7 933.2 198.5C977.7 198.3 1022.3 199.7 1066.8 193.3C1111.3 187 1155.7 173 1200 175C1244.3 177 1288.7 195 1333.2 195.7C1377.7 196.3 1422.3 179.7 1466.8 174.3C1511.3 169 1555.7 175 1577.8 178L1600 181L1600 0L1577.8 0C1555.7 0 1511.3 0 1466.8 0C1422.3 0 1377.7 0 1333.2 0C1288.7 0 1244.3 0 1200 0C1155.7 0 1111.3 0 1066.8 0C1022.3 0 977.7 0 933.2 0C888.7 0 844.3 0 800 0C755.7 0 711.3 0 666.8 0C622.3 0 577.7 0 533.2 0C488.7 0 444.3 0 400 0C355.7 0 311.3 0 266.8 0C222.3 0 177.7 0 133.2 0C88.7 0 44.3 0 22.2 0L0 0Z" fill="#c04e45"></path></svg>