<svg id="visual" viewBox="0 0 1600 700" width="1600" height="700" xmlns="http://www.w3.org/2000/svg" xmlns:xlink="http://www.w3.org/1999/xlink" version="1.1"><g transform="translate(1618.0572124836156 58.371069320859704)"><path d="M332.2 -383C442.8 -303 553.3 -210 545.3 -116.7C537.2 -23.3 410.7 70.4 319.3 142.8C228 215.3 171.8 266.4 90.3 332.7C8.9 399.1 -97.8 480.5 -237.3 497C-376.8 513.5 -549.1 465 -577.4 360.3C-605.7 255.7 -490 94.8 -463.5 -86.3C-437 -267.4 -499.7 -468.9 -437.3 -557.4C-375 -645.9 -187.5 -621.4 -38.4 -575.7C110.8 -530 221.5 -463 332.2 -383" fill="#ffb703"></path></g></svg>