<svg id="visual" viewBox="0 0 1600 700" width="1600" height="700" xmlns="http://www.w3.org/2000/svg" xmlns:xlink="http://www.w3.org/1999/xlink" version="1.1"><g transform="translate(1607.486145472416 110.9496435556295)"><path d="M449.2 -650.7C555.6 -541 596.9 -374.2 569.5 -237.3C542.1 -100.3 446 6.7 408.3 135.6C370.5 264.6 391 415.4 332.6 492.7C274.3 569.9 137.1 573.4 6.8 564.1C-123.6 554.8 -247.3 532.7 -281.9 447.8C-316.6 362.9 -262.3 215.2 -323.5 90.2C-384.7 -34.9 -561.4 -137.3 -588.8 -234.1C-616.2 -330.8 -494.4 -421.9 -371.4 -526.1C-248.4 -630.3 -124.2 -747.6 23.6 -780.1C171.4 -812.6 342.9 -760.3 449.2 -650.7" fill="#ffb703"></path></g></svg>