<svg id="visual" viewBox="0 0 1600 700" width="1600" height="700" xmlns="http://www.w3.org/2000/svg" xmlns:xlink="http://www.w3.org/1999/xlink" version="1.1"><g transform="translate(1528.6709093395089 86.32984869475905)"><path d="M473.6 -592.6C604.4 -556.9 694.5 -405.9 711.2 -254.7C727.9 -103.4 671.1 48.1 566.4 126.5C461.7 204.8 309 210 206.6 267.6C104.2 325.1 52.1 435.1 4.6 428.7C-42.9 422.3 -85.7 299.7 -185.9 241.4C-286.1 183.1 -443.6 189.2 -516.9 128.9C-590.3 68.6 -579.5 -58.1 -543.4 -178.8C-507.3 -299.6 -445.9 -414.3 -351.1 -461.7C-256.3 -509.1 -128.1 -489 21.7 -518.8C171.4 -548.6 342.9 -628.3 473.6 -592.6" fill="#ffb703"></path></g></svg>