<svg id="visual" viewBox="0 0 900 600" width="900" height="600" xmlns="http://www.w3.org/2000/svg" xmlns:xlink="http://www.w3.org/1999/xlink" version="1.1"><g transform="translate(924.8552958484457 5.24940931416171)"><path d="M35.1 -143.6C70.2 -40.5 140.3 -81 195.6 -81C251 -81 291.5 -40.5 361.5 40.4C431.5 121.3 531 242.7 515.4 311.5C499.8 380.4 369.2 396.7 264.1 433.6C159 470.4 79.5 527.7 -0.6 528.7C-80.7 529.7 -161.3 474.4 -280.4 445.7C-399.5 416.9 -557 414.7 -566.3 344.9C-575.6 275 -436.8 137.5 -352.8 48.5C-268.8 -40.5 -239.6 -81 -213 -120.8C-186.3 -160.7 -162.1 -199.8 -127.1 -302.9C-92 -406 -46 -573 -23 -533.2C0 -493.3 0 -246.7 35.1 -143.6" fill="#ffb703"></path></g></svg>