<svg id="visual" viewBox="0 0 1600 700" width="1600" height="700" xmlns="http://www.w3.org/2000/svg" xmlns:xlink="http://www.w3.org/1999/xlink" version="1.1"><path d="M0 166L22.2 154.8C44.3 143.7 88.7 121.3 133.2 144.7C177.7 168 222.3 237 266.8 270.7C311.3 304.3 355.7 302.7 400 281.3C444.3 260 488.7 219 533.2 202.5C577.7 186 622.3 194 666.8 177.5C711.3 161 755.7 120 800 109.5C844.3 99 888.7 119 933.2 158C977.7 197 1022.3 255 1066.8 264.8C1111.3 274.7 1155.7 236.3 1200 226.7C1244.3 217 1288.7 236 1333.2 258C1377.7 280 1422.3 305 1466.8 279C1511.3 253 1555.7 176 1577.8 137.5L1600 99L1600 0L1577.8 0C1555.7 0 1511.3 0 1466.8 0C1422.3 0 1377.7 0 1333.2 0C1288.7 0 1244.3 0 1200 0C1155.7 0 1111.3 0 1066.8 0C1022.3 0 977.7 0 933.2 0C888.7 0 844.3 0 800 0C755.7 0 711.3 0 666.8 0C622.3 0 577.7 0 533.2 0C488.7 0 444.3 0 400 0C355.7 0 311.3 0 266.8 0C222.3 0 177.7 0 133.2 0C88.7 0 44.3 0 22.2 0L0 0Z" fill="#ffb703"></path><path d="M0 206L22.2 207C44.3 208 88.7 210 133.2 186.3C177.7 162.7 222.3 113.3 266.8 109.7C311.3 106 355.7 148 400 148.2C444.3 148.3 488.7 106.7 533.2 111.2C577.7 115.7 622.3 166.3 666.8 162.2C711.3 158 755.7 99 800 92.7C844.3 86.3 888.7 132.7 933.2 161.3C977.7 190 1022.3 201 1066.8 175.7C1111.3 150.3 1155.7 88.7 1200 86.7C1244.3 84.7 1288.7 142.3 1333.2 171.5C1377.7 200.7 1422.3 201.3 1466.8 204C1511.3 206.7 1555.7 211.3 1577.8 213.7L1600 216L1600 0L1577.8 0C1555.7 0 1511.3 0 1466.8 0C1422.3 0 1377.7 0 1333.2 0C1288.7 0 1244.3 0 1200 0C1155.7 0 1111.3 0 1066.8 0C1022.3 0 977.7 0 933.2 0C888.7 0 844.3 0 800 0C755.7 0 711.3 0 666.8 0C622.3 0 577.7 0 533.2 0C488.7 0 444.3 0 400 0C355.7 0 311.3 0 266.8 0C222.3 0 177.7 0 133.2 0C88.7 0 44.3 0 22.2 0L0 0Z" fill="#905b00"></path></svg>