<svg id="visual" viewBox="0 0 1600 700" width="1600" height="700" xmlns="http://www.w3.org/2000/svg" xmlns:xlink="http://www.w3.org/1999/xlink" version="1.1"><path d="M0 444L22.2 421.3C44.3 398.7 88.7 353.3 133.2 288.2C177.7 223 222.3 138 266.8 119.5C311.3 101 355.7 149 400 194.8C444.3 240.7 488.7 284.3 533.2 292C577.7 299.7 622.3 271.3 666.8 248.7C711.3 226 755.7 209 800 256.2C844.3 303.3 888.7 414.7 933.2 414.7C977.7 414.7 1022.3 303.3 1066.8 228.2C1111.3 153 1155.7 114 1200 89.7C1244.3 65.3 1288.7 55.7 1333.2 56.3C1377.7 57 1422.3 68 1466.8 121.8C1511.3 175.7 1555.7 272.3 1577.8 320.7L1600 369L1600 0L1577.8 0C1555.7 0 1511.3 0 1466.8 0C1422.3 0 1377.7 0 1333.2 0C1288.7 0 1244.3 0 1200 0C1155.7 0 1111.3 0 1066.8 0C1022.3 0 977.7 0 933.2 0C888.7 0 844.3 0 800 0C755.7 0 711.3 0 666.8 0C622.3 0 577.7 0 533.2 0C488.7 0 444.3 0 400 0C355.7 0 311.3 0 266.8 0C222.3 0 177.7 0 133.2 0C88.7 0 44.3 0 22.2 0L0 0Z" fill="#ffb703"></path><path d="M0 316L22.2 286C44.3 256 88.7 196 133.2 151.3C177.7 106.7 222.3 77.3 266.8 66.8C311.3 56.3 355.7 64.7 400 102.3C444.3 140 488.7 207 533.2 202.7C577.7 198.3 622.3 122.7 666.8 108C711.3 93.3 755.7 139.7 800 171.8C844.3 204 888.7 222 933.2 206.3C977.7 190.7 1022.3 141.3 1066.8 109.3C1111.3 77.3 1155.7 62.7 1200 82.5C1244.3 102.3 1288.7 156.7 1333.2 159.7C1377.7 162.7 1422.3 114.3 1466.8 122.5C1511.3 130.7 1555.7 195.3 1577.8 227.7L1600 260L1600 0L1577.8 0C1555.7 0 1511.3 0 1466.8 0C1422.3 0 1377.7 0 1333.2 0C1288.7 0 1244.3 0 1200 0C1155.7 0 1111.3 0 1066.8 0C1022.3 0 977.7 0 933.2 0C888.7 0 844.3 0 800 0C755.7 0 711.3 0 666.8 0C622.3 0 577.7 0 533.2 0C488.7 0 444.3 0 400 0C355.7 0 311.3 0 266.8 0C222.3 0 177.7 0 133.2 0C88.7 0 44.3 0 22.2 0L0 0Z" fill="#905b00"></path></svg>