<svg id="visual" viewBox="0 0 1600 700" width="1600" height="700" xmlns="http://www.w3.org/2000/svg" xmlns:xlink="http://www.w3.org/1999/xlink" version="1.1"><path d="M0 43L29.7 47.7C59.3 52.3 118.7 61.7 178 66.3C237.3 71 296.7 71 355.8 62.8C415 54.7 474 38.3 533.2 38.3C592.3 38.3 651.7 54.7 711 51C770.3 47.3 829.7 23.7 889 16.7C948.3 9.7 1007.7 19.3 1066.8 31.2C1126 43 1185 57 1244.2 55.8C1303.3 54.7 1362.7 38.3 1422 39.5C1481.3 40.7 1540.7 59.3 1570.3 68.7L1600 78L1600 0L1570.3 0C1540.7 0 1481.3 0 1422 0C1362.7 0 1303.3 0 1244.2 0C1185 0 1126 0 1066.8 0C1007.7 0 948.3 0 889 0C829.7 0 770.3 0 711 0C651.7 0 592.3 0 533.2 0C474 0 415 0 355.8 0C296.7 0 237.3 0 178 0C118.7 0 59.3 0 29.7 0L0 0Z" fill="#ffb703"></path><path d="M0 99L29.7 95.5C59.3 92 118.7 85 178 82.7C237.3 80.3 296.7 82.7 355.8 83.8C415 85 474 85 533.2 90.8C592.3 96.7 651.7 108.3 711 95.5C770.3 82.7 829.7 45.3 889 36C948.3 26.7 1007.7 45.3 1066.8 66.3C1126 87.3 1185 110.7 1244.2 110.7C1303.3 110.7 1362.7 87.3 1422 79.2C1481.3 71 1540.7 78 1570.3 81.5L1600 85L1600 76L1570.3 66.7C1540.7 57.3 1481.3 38.7 1422 37.5C1362.7 36.3 1303.3 52.7 1244.2 53.8C1185 55 1126 41 1066.8 29.5C1007.7 18 948.3 9 889 16C829.7 23 770.3 46 711 49.3C651.7 52.7 592.3 36.3 533.2 36.3C474 36.3 415 52.7 355.8 60.8C296.7 69 237.3 69 178 64.3C118.7 59.7 59.3 50.3 29.7 45.7L0 41Z" fill="#f4c434"></path><path d="M0 120L29.7 118.8C59.3 117.7 118.7 115.3 178 118.8C237.3 122.3 296.7 131.7 355.8 142.2C415 152.7 474 164.3 533.2 174.8C592.3 185.3 651.7 194.7 711 180.7C770.3 166.7 829.7 129.3 889 122.3C948.3 115.3 1007.7 138.7 1066.8 158.5C1126 178.3 1185 194.7 1244.2 183C1303.3 171.3 1362.7 131.7 1422 118.8C1481.3 106 1540.7 120 1570.3 127L1600 134L1600 83L1570.3 79.5C1540.7 76 1481.3 69 1422 77.2C1362.7 85.3 1303.3 108.7 1244.2 108.7C1185 108.7 1126 85.3 1066.8 64.3C1007.7 43.3 948.3 24.7 889 34C829.7 43.3 770.3 80.7 711 93.5C651.7 106.3 592.3 94.7 533.2 88.8C474 83 415 83 355.8 81.8C296.7 80.7 237.3 78.3 178 80.7C118.7 83 59.3 90 29.7 93.5L0 97Z" fill="#ebd053"></path><path d="M0 176L29.7 171.3C59.3 166.7 118.7 157.3 178 155C237.3 152.7 296.7 157.3 355.8 167.8C415 178.3 474 194.7 533.2 215.7C592.3 236.7 651.7 262.3 711 254.2C770.3 246 829.7 204 889 193.5C948.3 183 1007.7 204 1066.8 216.8C1126 229.7 1185 234.3 1244.2 213.3C1303.3 192.3 1362.7 145.7 1422 138.7C1481.3 131.7 1540.7 164.3 1570.3 180.7L1600 197L1600 132L1570.3 125C1540.7 118 1481.3 104 1422 116.8C1362.7 129.7 1303.3 169.3 1244.2 181C1185 192.7 1126 176.3 1066.8 156.5C1007.7 136.7 948.3 113.3 889 120.3C829.7 127.3 770.3 164.7 711 178.7C651.7 192.7 592.3 183.3 533.2 172.8C474 162.3 415 150.7 355.8 140.2C296.7 129.7 237.3 120.3 178 116.8C118.7 113.3 59.3 115.7 29.7 116.8L0 118Z" fill="#e4da6f"></path><path d="M0 260L29.7 243.7C59.3 227.3 118.7 194.7 178 195.8C237.3 197 296.7 232 355.8 253C415 274 474 281 533.2 290.3C592.3 299.7 651.7 311.3 711 297.3C770.3 283.3 829.7 243.7 889 229.7C948.3 215.7 1007.7 227.3 1066.8 248.3C1126 269.3 1185 299.7 1244.2 277.5C1303.3 255.3 1362.7 180.7 1422 176C1481.3 171.3 1540.7 236.7 1570.3 269.3L1600 302L1600 195L1570.3 178.7C1540.7 162.3 1481.3 129.7 1422 136.7C1362.7 143.7 1303.3 190.3 1244.2 211.3C1185 232.3 1126 227.7 1066.8 214.8C1007.7 202 948.3 181 889 191.5C829.7 202 770.3 244 711 252.2C651.7 260.3 592.3 234.7 533.2 213.7C474 192.7 415 176.3 355.8 165.8C296.7 155.3 237.3 150.7 178 153C118.7 155.3 59.3 164.7 29.7 169.3L0 174Z" fill="#dfe38b"></path><path d="M0 358L29.7 339.3C59.3 320.7 118.7 283.3 178 276.3C237.3 269.3 296.7 292.7 355.8 328.8C415 365 474 414 533.2 422.2C592.3 430.3 651.7 397.7 711 408.2C770.3 418.7 829.7 472.3 889 457.2C948.3 442 1007.7 358 1066.8 365C1126 372 1185 470 1244.2 501.5C1303.3 533 1362.7 498 1422 465.3C1481.3 432.7 1540.7 402.3 1570.3 387.2L1600 372L1600 300L1570.3 267.3C1540.7 234.7 1481.3 169.3 1422 174C1362.7 178.7 1303.3 253.3 1244.2 275.5C1185 297.7 1126 267.3 1066.8 246.3C1007.7 225.3 948.3 213.7 889 227.7C829.7 241.7 770.3 281.3 711 295.3C651.7 309.3 592.3 297.7 533.2 288.3C474 279 415 272 355.8 251C296.7 230 237.3 195 178 193.8C118.7 192.7 59.3 225.3 29.7 241.7L0 258Z" fill="#ddeba6"></path><path d="M0 470L29.7 453.7C59.3 437.3 118.7 404.7 178 396.5C237.3 388.3 296.7 404.7 355.8 436.2C415 467.7 474 514.3 533.2 519C592.3 523.7 651.7 486.3 711 505C770.3 523.7 829.7 598.3 889 585.5C948.3 572.7 1007.7 472.3 1066.8 458.3C1126 444.3 1185 516.7 1244.2 541.2C1303.3 565.7 1362.7 542.3 1422 514.3C1481.3 486.3 1540.7 453.7 1570.3 437.3L1600 421L1600 370L1570.3 385.2C1540.7 400.3 1481.3 430.7 1422 463.3C1362.7 496 1303.3 531 1244.2 499.5C1185 468 1126 370 1066.8 363C1007.7 356 948.3 440 889 455.2C829.7 470.3 770.3 416.7 711 406.2C651.7 395.7 592.3 428.3 533.2 420.2C474 412 415 363 355.8 326.8C296.7 290.7 237.3 267.3 178 274.3C118.7 281.3 59.3 318.7 29.7 337.3L0 356Z" fill="#e0f1c0"></path><path d="M0 680L29.7 662.5C59.3 645 118.7 610 178 593.7C237.3 577.3 296.7 579.7 355.8 589C415 598.3 474 614.7 533.2 620.5C592.3 626.3 651.7 621.7 711 633.3C770.3 645 829.7 673 889 681.2C948.3 689.3 1007.7 677.7 1066.8 670.7C1126 663.7 1185 661.3 1244.2 648.5C1303.3 635.7 1362.7 612.3 1422 614.7C1481.3 617 1540.7 645 1570.3 659L1600 673L1600 419L1570.3 435.3C1540.7 451.7 1481.3 484.3 1422 512.3C1362.7 540.3 1303.3 563.7 1244.2 539.2C1185 514.7 1126 442.3 1066.8 456.3C1007.7 470.3 948.3 570.7 889 583.5C829.7 596.3 770.3 521.7 711 503C651.7 484.3 592.3 521.7 533.2 517C474 512.3 415 465.7 355.8 434.2C296.7 402.7 237.3 386.3 178 394.5C118.7 402.7 59.3 435.3 29.7 451.7L0 468Z" fill="#e6f6d8"></path><path d="M0 701L29.7 701C59.3 701 118.7 701 178 701C237.3 701 296.7 701 355.8 701C415 701 474 701 533.2 701C592.3 701 651.7 701 711 701C770.3 701 829.7 701 889 701C948.3 701 1007.7 701 1066.8 701C1126 701 1185 701 1244.2 701C1303.3 701 1362.7 701 1422 701C1481.3 701 1540.7 701 1570.3 701L1600 701L1600 671L1570.3 657C1540.7 643 1481.3 615 1422 612.7C1362.7 610.3 1303.3 633.7 1244.2 646.5C1185 659.3 1126 661.7 1066.8 668.7C1007.7 675.7 948.3 687.3 889 679.2C829.7 671 770.3 643 711 631.3C651.7 619.7 592.3 624.3 533.2 618.5C474 612.7 415 596.3 355.8 587C296.7 577.7 237.3 575.3 178 591.7C118.7 608 59.3 643 29.7 660.5L0 678Z" fill="#f1faee"></path></svg>